<svg width="25" height="25" viewBox="0 0 25 25" fill="none" xmlns="http://www.w3.org/2000/svg">
<rect width="24.0352" height="24.0352" transform="translate(0 0.0703735)" fill="white"/>
<path d="M7.41425 17.6085H13.8343M7.41425 13.9399H8.3314M7.41425 10.2713H10.1657M7.41425 2.93405H15.713C15.9782 2.93405 16.2325 3.03941 16.4201 3.22694L19.9615 6.76834C20.149 6.95587 20.2544 7.21023 20.2544 7.47544V18.5256" stroke="#556C84" stroke-width="1.5"/>
<path d="M3.74567 19.9014V7.06124C3.74567 6.69638 3.89061 6.34646 4.14861 6.08846C4.40661 5.83046 4.75653 5.68552 5.12139 5.68552H14.0654C14.2113 5.68564 14.3512 5.74371 14.4543 5.84694L17.3415 8.73413C17.3928 8.78539 17.4335 8.84631 17.4612 8.91336C17.4889 8.98041 17.5031 9.05228 17.5029 9.12483V19.9014C17.5029 20.2662 17.358 20.6161 17.1 20.8741C16.842 21.1321 16.4921 21.2771 16.1272 21.2771H5.12139C4.75653 21.2771 4.40661 21.1321 4.14861 20.8741C3.89061 20.6161 3.74567 20.2662 3.74567 19.9014Z" stroke="#556C84" stroke-width="1.5"/>
<path d="M13.8343 5.68552V8.80383C13.8343 8.94978 13.8923 9.08974 13.9955 9.19294C14.0987 9.29614 14.2386 9.35412 14.3846 9.35412H17.5029" stroke="#556C84" stroke-width="1.5"/>
</svg>
