<svg width="16" height="17" viewBox="0 0 16 17" fill="none" xmlns="http://www.w3.org/2000/svg">
<path d="M11.0036 2.30505L4.83155 8.55178C4.6514 8.73406 4.56132 8.82528 4.50515 8.93751C4.44897 9.04966 4.43036 9.17566 4.39315 9.42758L4.26546 10.2918C4.12004 11.2759 4.04734 11.7679 4.33982 12.0492C4.63229 12.3304 5.1291 12.246 6.1227 12.0773L6.99518 11.9293C7.24957 11.8861 7.37668 11.8645 7.48899 11.8062C7.6013 11.748 7.69133 11.6567 7.87153 11.4745L14.0436 5.22774C14.571 4.69391 14.8347 4.42701 14.8305 4.09959C14.8263 3.77218 14.5559 3.51213 14.0148 2.99202L13.2701 2.27595C12.729 1.75584 12.4586 1.49579 12.1267 1.50005C11.7947 1.50431 11.531 1.77122 11.0036 2.30505Z" stroke="#2764FF" stroke-width="1.5"/>
<path d="M13.0406 6.12519L10.2105 3.2951" stroke="#2764FF" stroke-width="1.5"/>
<path d="M15.1637 15.5001H0.836365" stroke="#2764FF" stroke-width="1.5" stroke-linecap="round"/>
</svg>
