<svg width="25" height="25" viewBox="0 0 25 25" fill="none" xmlns="http://www.w3.org/2000/svg">
<path d="M12.1979 12.5407H19.1979M19.1979 12.5407L16.1979 15.5407M19.1979 12.5407L16.1979 9.54071M19.1979 6.54071V5.54071C19.1979 5.01028 18.9872 4.50157 18.6121 4.1265C18.237 3.75142 17.7283 3.54071 17.1979 3.54071H7.19788C6.66744 3.54071 6.15874 3.75142 5.78366 4.1265C5.40859 4.50157 5.19788 5.01028 5.19788 5.54071V19.5407C5.19788 20.0711 5.40859 20.5799 5.78366 20.9549C6.15874 21.33 6.66744 21.5407 7.19788 21.5407H17.1979C17.7283 21.5407 18.237 21.33 18.6121 20.9549C18.9872 20.5799 19.1979 20.0711 19.1979 19.5407V18.5407" stroke="#FF4848" stroke-width="1.5" stroke-linecap="round" stroke-linejoin="round"/>
</svg>
