<svg width="159" height="33" viewBox="0 0 159 33" fill="none" xmlns="http://www.w3.org/2000/svg">
<path d="M18.0615 23.2444L13.5852 30.9975L4.63274 30.9975L0.156499 23.2444L4.63274 15.4913L13.5852 15.4913L18.0615 23.2444Z" fill="#86C7ED"/>
<path d="M35.7853 22.5974L31.3091 30.3505L22.3566 30.3504L9.07568 8.67916L13.5519 0.926085L22.5044 0.926086L35.7853 22.5974Z" fill="#FE6A6B"/>
<path d="M46.856 23.5352L51.2897 9.89319H54.1412L58.5749 23.5352H56.5191L52.436 11.0869H52.9475L48.9118 23.5352H46.856ZM49.1581 20.4563V18.5995H56.2823V20.4563H49.1581ZM60.464 23.5352V9.89319H62.444V23.5352H60.464ZM69.082 23.5352V9.89319H77.7978V11.7595H71.062V15.5868H76.6609V17.4531H71.062V21.6689H77.7978V23.5352H69.082ZM92.3318 23.5352L92.3413 17.1595C92.3413 16.4205 92.1518 15.8458 91.7728 15.4353C91.3939 15.0184 90.895 14.81 90.276 14.81C89.8971 14.81 89.5497 14.8984 89.2339 15.0753C88.9244 15.2458 88.6718 15.5047 88.476 15.8521C88.2865 16.1932 88.1918 16.6226 88.1918 17.1405L87.235 16.6574C87.2223 15.9374 87.3739 15.3058 87.6897 14.7626C88.0118 14.2195 88.4476 13.7995 88.9971 13.5026C89.5465 13.1995 90.1623 13.0479 90.8444 13.0479C91.9497 13.0479 92.8055 13.3795 93.4118 14.0426C94.0181 14.7058 94.3212 15.5868 94.3212 16.6858L94.3118 23.5352H92.3318ZM80.0634 23.5352V13.3037H81.8255V16.2595H82.0529V23.5352H80.0634ZM86.2023 23.5352L86.2118 17.1974C86.2118 16.4521 86.0223 15.8679 85.6434 15.4447C85.2708 15.0216 84.7687 14.81 84.1371 14.81C83.5118 14.81 83.0066 15.0247 82.6213 15.4542C82.2424 15.8837 82.0529 16.4458 82.0529 17.1405L81.1055 16.5342C81.1055 15.8647 81.2666 15.2679 81.5887 14.7437C81.9108 14.2195 82.3466 13.8058 82.8961 13.5026C83.4455 13.1995 84.0676 13.0479 84.7624 13.0479C85.4887 13.0479 86.1076 13.2026 86.6192 13.5121C87.1308 13.8153 87.5192 14.2416 87.7844 14.7911C88.056 15.3405 88.1918 15.9784 88.1918 16.7047L88.1823 23.5352H86.2023ZM101.584 23.8194C100.605 23.8194 99.7844 23.5826 99.1213 23.1089C98.4581 22.6289 97.956 21.9815 97.615 21.1668C97.2739 20.3521 97.1034 19.4331 97.1034 18.41C97.1034 17.3868 97.2708 16.4679 97.6055 15.6532C97.9465 14.8384 98.4455 14.1974 99.1023 13.73C99.7655 13.2563 100.58 13.0195 101.547 13.0195C102.507 13.0195 103.334 13.2563 104.029 13.73C104.73 14.1974 105.27 14.8384 105.649 15.6532C106.028 16.4616 106.217 17.3805 106.217 18.41C106.217 19.4331 106.028 20.3552 105.649 21.1763C105.276 21.991 104.742 22.6352 104.048 23.1089C103.359 23.5826 102.538 23.8194 101.584 23.8194ZM96.7718 23.5352V9.89319H98.7613V16.1742H98.5339V23.5352H96.7718ZM101.31 22.0289C101.941 22.0289 102.462 21.8679 102.873 21.5458C103.29 21.2237 103.599 20.791 103.801 20.2479C104.01 19.6984 104.114 19.0858 104.114 18.41C104.114 17.7405 104.01 17.1342 103.801 16.591C103.599 16.0479 103.287 15.6153 102.863 15.2932C102.44 14.9711 101.9 14.81 101.243 14.81C100.624 14.81 100.113 14.9616 99.7086 15.2647C99.3107 15.5679 99.0139 15.9911 98.8181 16.5342C98.6286 17.0774 98.5339 17.7026 98.5339 18.41C98.5339 19.1173 98.6286 19.7426 98.8181 20.2858C99.0076 20.8289 99.3076 21.2552 99.7181 21.5647C100.129 21.8742 100.659 22.0289 101.31 22.0289ZM112.752 23.8194C111.729 23.8194 110.841 23.5889 110.09 23.1279C109.338 22.6668 108.757 22.0321 108.347 21.2237C107.942 20.4089 107.74 19.471 107.74 18.41C107.74 17.3426 107.949 16.4047 108.366 15.5963C108.782 14.7816 109.367 14.15 110.118 13.7016C110.87 13.2469 111.748 13.0195 112.752 13.0195C113.775 13.0195 114.662 13.25 115.414 13.7111C116.166 14.1721 116.747 14.8068 117.157 15.6153C117.568 16.4237 117.773 17.3553 117.773 18.41C117.773 19.4773 117.564 20.4184 117.148 21.2331C116.737 22.0415 116.156 22.6763 115.405 23.1373C114.653 23.5921 113.769 23.8194 112.752 23.8194ZM112.752 21.9531C113.731 21.9531 114.46 21.6247 114.94 20.9679C115.427 20.3047 115.67 19.4521 115.67 18.41C115.67 17.3426 115.423 16.49 114.931 15.8521C114.445 15.2079 113.718 14.8858 112.752 14.8858C112.089 14.8858 111.542 15.0374 111.113 15.3405C110.683 15.6374 110.365 16.0511 110.156 16.5816C109.948 17.1058 109.843 17.7153 109.843 18.41C109.843 19.4837 110.09 20.3426 110.582 20.9868C111.075 21.631 111.798 21.9531 112.752 21.9531ZM123.919 23.8194C122.965 23.8194 122.141 23.5826 121.446 23.1089C120.758 22.6352 120.224 21.991 119.845 21.1763C119.473 20.3552 119.286 19.4331 119.286 18.41C119.286 17.3805 119.476 16.4616 119.855 15.6532C120.234 14.8384 120.771 14.1974 121.465 13.73C122.166 13.2563 122.997 13.0195 123.957 13.0195C124.923 13.0195 125.735 13.2563 126.392 13.73C127.055 14.1974 127.554 14.8384 127.888 15.6532C128.229 16.4679 128.4 17.3868 128.4 18.41C128.4 19.4331 128.229 20.3521 127.888 21.1668C127.547 21.9815 127.045 22.6289 126.382 23.1089C125.719 23.5826 124.898 23.8194 123.919 23.8194ZM124.194 22.0289C124.844 22.0289 125.375 21.8742 125.785 21.5647C126.196 21.2552 126.496 20.8289 126.685 20.2858C126.875 19.7426 126.969 19.1173 126.969 18.41C126.969 17.7026 126.872 17.0774 126.676 16.5342C126.486 15.9911 126.189 15.5679 125.785 15.2647C125.387 14.9616 124.879 14.81 124.26 14.81C123.603 14.81 123.063 14.9711 122.64 15.2932C122.217 15.6153 121.901 16.0479 121.693 16.591C121.491 17.1342 121.389 17.7405 121.389 18.41C121.389 19.0858 121.491 19.6984 121.693 20.2479C121.901 20.791 122.211 21.2237 122.621 21.5458C123.038 21.8679 123.562 22.0289 124.194 22.0289ZM126.969 23.5352V16.1742H126.742V9.89319H128.732V23.5352H126.969ZM131.572 11.6269V9.70372H133.552V11.6269H131.572ZM131.572 23.5352V13.3037H133.552V23.5352H131.572ZM140.934 23.8194C139.918 23.8194 139.024 23.5984 138.253 23.1563C137.489 22.7079 136.892 22.0858 136.463 21.29C136.04 20.4879 135.828 19.5595 135.828 18.5047C135.828 17.3868 136.037 16.4174 136.453 15.5963C136.877 14.7753 137.464 14.1405 138.216 13.6921C138.967 13.2437 139.842 13.0195 140.84 13.0195C141.882 13.0195 142.769 13.2626 143.502 13.749C144.234 14.229 144.781 14.9142 145.141 15.8047C145.507 16.6953 145.652 17.7531 145.577 18.9784H143.597V18.2584C143.584 17.071 143.357 16.1932 142.914 15.6247C142.479 15.0563 141.812 14.7721 140.916 14.7721C139.924 14.7721 139.179 15.0847 138.68 15.71C138.181 16.3353 137.931 17.2384 137.931 18.4195C137.931 19.5437 138.181 20.4152 138.68 21.0342C139.179 21.6468 139.899 21.9531 140.84 21.9531C141.459 21.9531 141.992 21.8142 142.441 21.5363C142.895 21.2521 143.249 20.8479 143.502 20.3237L145.444 20.9394C145.046 21.8552 144.443 22.5657 143.634 23.071C142.826 23.57 141.926 23.8194 140.934 23.8194ZM137.287 18.9784V17.4342H144.591V18.9784H137.287ZM151.766 23.8194C150.813 23.8194 149.988 23.5826 149.294 23.1089C148.605 22.6352 148.072 21.991 147.693 21.1763C147.32 20.3552 147.134 19.4331 147.134 18.41C147.134 17.3805 147.323 16.4616 147.702 15.6532C148.081 14.8384 148.618 14.1974 149.313 13.73C150.014 13.2563 150.844 13.0195 151.804 13.0195C152.77 13.0195 153.582 13.2563 154.239 13.73C154.902 14.1974 155.401 14.8384 155.736 15.6532C156.077 16.4679 156.247 17.3868 156.247 18.41C156.247 19.4331 156.077 20.3521 155.736 21.1668C155.395 21.9815 154.893 22.6289 154.229 23.1089C153.566 23.5826 152.745 23.8194 151.766 23.8194ZM152.041 22.0289C152.691 22.0289 153.222 21.8742 153.633 21.5647C154.043 21.2552 154.343 20.8289 154.533 20.2858C154.722 19.7426 154.817 19.1173 154.817 18.41C154.817 17.7026 154.719 17.0774 154.523 16.5342C154.334 15.9911 154.037 15.5679 153.633 15.2647C153.235 14.9616 152.726 14.81 152.107 14.81C151.45 14.81 150.91 14.9711 150.487 15.2932C150.064 15.6153 149.748 16.0479 149.54 16.591C149.338 17.1342 149.237 17.7405 149.237 18.41C149.237 19.0858 149.338 19.6984 149.54 20.2479C149.748 20.791 150.058 21.2237 150.468 21.5458C150.885 21.8679 151.409 22.0289 152.041 22.0289ZM154.817 23.5352V16.1742H154.589V9.89319H156.579V23.5352H154.817Z" fill="black"/>
</svg>
