<svg width="25" height="25" viewBox="0 0 25 25" fill="none" xmlns="http://www.w3.org/2000/svg">
<path d="M19.6355 11.1117C19.6355 9.08669 18.831 7.14457 17.3991 5.71264C15.9672 4.28071 14.025 3.47626 12 3.47626C9.97493 3.47626 8.03282 4.28071 6.60088 5.71264C5.16895 7.14457 4.3645 9.08669 4.3645 11.1117" stroke="#556C84" stroke-width="1.5"/>
<path d="M19.6355 17.7928V18.27C19.6355 18.7763 19.4344 19.2618 19.0764 19.6198C18.7184 19.9778 18.2329 20.1789 17.7266 20.1789H14.3861M2.45563 15.3475V13.557C2.45569 13.1313 2.59803 12.7179 2.86003 12.3824C3.12202 12.0469 3.48863 11.8086 3.9016 11.7054L5.56232 11.2893C5.6467 11.2682 5.73477 11.2667 5.81983 11.2848C5.90489 11.3029 5.98472 11.3401 6.05325 11.3937C6.12178 11.4472 6.17722 11.5156 6.21536 11.5938C6.2535 11.672 6.27334 11.7578 6.27337 11.8447V17.0588C6.27352 17.146 6.25378 17.232 6.21565 17.3104C6.17752 17.3887 6.122 17.4574 6.05334 17.511C5.98467 17.5647 5.90466 17.602 5.8194 17.62C5.73415 17.6381 5.64589 17.6365 5.56136 17.6153L3.90064 17.2001C3.48786 17.0967 3.12146 16.8583 2.85965 16.5228C2.59784 16.1873 2.45564 15.774 2.45563 15.3485V15.3475ZM21.5443 15.3475V13.557C21.5443 13.1313 21.4019 12.7179 21.1399 12.3824C20.8779 12.0469 20.5113 11.8086 20.0984 11.7054L18.4377 11.2893C18.3533 11.2682 18.2652 11.2667 18.1801 11.2848C18.0951 11.3029 18.0152 11.3401 17.9467 11.3937C17.8782 11.4472 17.8227 11.5156 17.7846 11.5938C17.7465 11.672 17.7266 11.7578 17.7266 11.8447V17.0588C17.7265 17.1459 17.7462 17.2318 17.7843 17.3101C17.8224 17.3883 17.8778 17.4569 17.9463 17.5106C18.0149 17.5642 18.0948 17.6015 18.1799 17.6196C18.265 17.6378 18.3532 17.6363 18.4377 17.6153L20.0984 17.2001C20.5113 17.0968 20.8779 16.8586 21.1399 16.5231C21.4019 16.1876 21.5443 15.7741 21.5443 15.3485V15.3475Z" stroke="#556C84" stroke-width="1.5"/>
<path d="M13.4317 21.6105H10.5684C10.1887 21.6105 9.82453 21.4597 9.55604 21.1912C9.28755 20.9227 9.13672 20.5586 9.13672 20.1789C9.13672 19.7992 9.28755 19.435 9.55604 19.1665C9.82453 18.8981 10.1887 18.7472 10.5684 18.7472H13.4317C13.8114 18.7472 14.1755 18.8981 14.444 19.1665C14.7125 19.435 14.8633 19.7992 14.8633 20.1789C14.8633 20.5586 14.7125 20.9227 14.444 21.1912C14.1755 21.4597 13.8114 21.6105 13.4317 21.6105Z" stroke="#556C84" stroke-width="1.5"/>
</svg>
